<svg width="26" height="26" viewBox="0 0 26 26" fill="none" xmlns="http://www.w3.org/2000/svg">
<path d="M13 0C5.82021 0 0 5.82021 0 13C0 20.1798 5.82021 26 13 26C20.1798 26 26 20.1798 26 13C26 5.82021 20.1798 0 13 0Z" fill="#FF6BB2"/>
<path fill-rule="evenodd" clip-rule="evenodd" d="M13 20C13.7732 20 14.4 19.3732 14.4 18.6V14.4H18.6C19.3732 14.4 20 13.7732 20 13C20 12.2268 19.3732 11.6 18.6 11.6H14.4V7.4C14.4 6.6268 13.7732 6 13 6C12.2268 6 11.6 6.6268 11.6 7.4L11.6 11.6H7.4C6.6268 11.6 6 12.2268 6 13C6 13.7732 6.6268 14.4 7.4 14.4H11.6L11.6 18.6C11.6 19.3732 12.2268 20 13 20Z" fill="#1E1548"/>
</svg>
