<svg width="103" height="48" viewBox="0 0 103 48" fill="none" xmlns="http://www.w3.org/2000/svg">
<mask id="mask0_1465_1275" style="mask-type:alpha" maskUnits="userSpaceOnUse" x="0" y="0" width="50" height="48">
<path fill-rule="evenodd" clip-rule="evenodd" d="M7.72825 0L48.5233 0C49.0411 0 49.4608 0.419733 49.4608 0.9375V40.5L41.7325 48H0.937499C0.419732 48 0 47.5803 0 47.0625V7.5L7.72825 0Z" fill="white"/>
</mask>
<g mask="url(#mask0_1465_1275)">
<path fill-rule="evenodd" clip-rule="evenodd" d="M7.72825 0L48.5233 0C49.0411 0 49.4608 0.419733 49.4608 0.9375V40.5L41.7325 48H0.937499C0.419732 48 0 47.5803 0 47.0625V7.5L7.72825 0Z" fill="#171A24"/>
<mask id="mask1_1465_1275" style="mask-type:alpha" maskUnits="userSpaceOnUse" x="0" y="0" width="50" height="48">
<path fill-rule="evenodd" clip-rule="evenodd" d="M7.72825 0L48.5233 0C49.0411 0 49.4608 0.419733 49.4608 0.9375V40.5L41.7325 48H0.937499C0.419732 48 0 47.5803 0 47.0625V7.5L7.72825 0Z" fill="white"/>
</mask>
<g mask="url(#mask1_1465_1275)">
<g opacity="0.05">
<path d="M24.7076 -44.1896L94.4841 23.4601" stroke="white" stroke-width="1.40625"/>
<path d="M20.0436 -39.6681L89.8201 27.9816" stroke="white" stroke-width="1.40625"/>
<path d="M15.3213 -35.09L85.0978 32.5597" stroke="white" stroke-width="1.40625"/>
<path d="M10.6572 -30.5685L80.4337 37.0812" stroke="white" stroke-width="1.40625"/>
<path d="M5.93511 -25.9904L75.7116 41.6593" stroke="white" stroke-width="1.40625"/>
<path d="M1.27092 -21.4669L71.0474 46.1827" stroke="white" stroke-width="1.40625"/>
<path d="M-3.45124 -16.8888L66.3253 50.7609" stroke="white" stroke-width="1.40625"/>
<path d="M-8.11543 -12.3673L61.6611 55.2823" stroke="white" stroke-width="1.40625"/>
<path d="M-12.7795 -7.84582L56.997 59.8038" stroke="white" stroke-width="1.40625"/>
<path d="M-17.4433 -3.32238L52.3332 64.3273" stroke="white" stroke-width="1.40625"/>
<path d="M-22.1658 1.25574L47.6107 68.9054" stroke="white" stroke-width="1.40625"/>
<path d="M-26.8297 5.77723L42.9468 73.4269" stroke="white" stroke-width="1.40625"/>
<path d="M-31.5521 10.3554L38.2244 78.005" stroke="white" stroke-width="1.40625"/>
<path d="M-36.2161 14.8768L33.5604 82.5265" stroke="white" stroke-width="1.40625"/>
<path d="M-40.9385 19.455L28.8379 87.1046" stroke="white" stroke-width="1.40625"/>
<path d="M-45.6024 23.9764L24.1741 91.6261" stroke="white" stroke-width="1.40625"/>
<path d="M94.4836 23.7998L24.5234 91.6276" stroke="white" stroke-width="1.40625"/>
<path d="M89.8319 19.2881L19.8716 87.1159" stroke="white" stroke-width="1.40625"/>
<path d="M85.1221 14.7236L15.1618 82.5514" stroke="white" stroke-width="1.40625"/>
<path d="M80.4701 10.2119L10.5098 78.0397" stroke="white" stroke-width="1.40625"/>
<path d="M75.7606 5.64551L5.80034 73.4733" stroke="white" stroke-width="1.40625"/>
<path d="M71.1084 1.13574L1.14812 68.9636" stroke="white" stroke-width="1.40625"/>
<path d="M66.3987 -3.43066L-3.5616 64.3972" stroke="white" stroke-width="1.40625"/>
<path d="M61.7469 -7.94043L-8.21333 59.8874" stroke="white" stroke-width="1.40625"/>
<path d="M57.0951 -12.4502L-12.8652 55.3776" stroke="white" stroke-width="1.40625"/>
<path d="M52.4432 -16.96L-17.517 50.8679" stroke="white" stroke-width="1.40625"/>
<path d="M47.7335 -21.5264L-22.2268 46.3014" stroke="white" stroke-width="1.40625"/>
<path d="M43.0815 -26.0361L-26.8787 41.7917" stroke="white" stroke-width="1.40625"/>
<path d="M38.3717 -30.6025L-31.5886 37.2253" stroke="white" stroke-width="1.40625"/>
<path d="M33.72 -35.1123L-36.2403 32.7155" stroke="white" stroke-width="1.40625"/>
<path d="M29.0101 -39.6807L-40.9501 28.1472" stroke="white" stroke-width="1.40625"/>
<path d="M24.3581 -44.1904L-45.6021 23.6374" stroke="white" stroke-width="1.40625"/>
</g>
</g>
<path d="M0.9375 7.89658L8.10837 0.9375H48.5233V40.1034L41.3524 47.0625H0.937499L0.9375 7.89658Z" stroke="#00D2DB" stroke-width="1.875" stroke-linejoin="round"/>
<ellipse cx="24.7305" cy="24" rx="19.3206" ry="18.75" fill="url(#paint0_linear_1465_1275)"/>
<ellipse cx="24.7305" cy="24" rx="19.3206" ry="18.75" fill="#00D2DB"/>
<mask id="mask2_1465_1275" style="mask-type:alpha" maskUnits="userSpaceOnUse" x="5" y="5" width="40" height="38">
<ellipse cx="24.7305" cy="24" rx="19.3206" ry="18.75" fill="white"/>
</mask>
<g mask="url(#mask2_1465_1275)">
<path fill-rule="evenodd" clip-rule="evenodd" d="M11.8364 28.0537C15.3666 29.9067 15.7088 26.5377 15.7088 26.5377C18.6329 26.2052 20.8039 23.0359 20.8039 23.0359C24.7498 25.0172 22.5509 30.6069 20.8494 32.7481C20.6906 32.9558 20.5528 33.1691 20.4302 33.3858H16.7073L12.9949 37.1667V41.8566C12.9949 41.8566 20.437 46.3209 24.7305 46.3209C29.0239 46.3209 38.5309 41.8566 38.5309 41.8566V37.1667H40.6135V33.3858H33.9602C37.0805 29.3348 36.2315 25.5233 35.2833 22.9871C34.1155 19.8576 32.532 18.1475 30.2244 16.3206C26.7981 13.6086 20.4664 13.2625 20.4664 13.2625C20.4255 13.0322 20.248 12.7655 19.9969 12.4864C20.7537 12.5136 21.6797 12.5715 22.7342 12.7042C23.4594 12.837 24.257 12.9164 25.0698 13.1468C25.8954 13.3204 26.7386 13.5995 27.5969 13.9229C28.4587 14.2327 29.2984 14.6718 30.1333 15.1371C30.9263 15.6693 31.7659 16.1663 32.4315 16.871C33.1941 17.4735 33.75 18.2621 34.321 19.0156C34.9178 19.752 35.2097 20.6519 35.6523 21.4314C35.9851 22.2609 36.172 23.112 36.4231 23.8915C36.6473 24.6802 36.6426 25.4699 36.7559 26.1746C36.8516 26.8838 36.9252 27.5351 36.8703 28.1207C36.8516 28.7051 36.8388 29.2111 36.8248 29.6276C36.8026 30.465 36.7886 30.9393 36.7886 30.9393L36.9018 30.953C36.9018 30.953 37.0069 30.4832 37.1436 29.6446C37.2078 29.2191 37.2814 28.7051 37.3725 28.1161C37.4998 27.5261 37.5044 26.8486 37.4495 26.1077C37.39 25.3724 37.4449 24.5565 37.272 23.71C37.0758 22.8725 36.9486 21.95 36.6017 21.0638C36.1545 20.2127 35.8532 19.2425 35.2331 18.4267C34.6352 17.5881 34.0466 16.72 33.235 16.046C32.4864 15.2971 31.5697 14.7785 30.7032 14.2248C29.7958 13.7504 28.8826 13.3068 27.9659 13.0015C27.0585 12.669 26.1465 12.4512 25.2742 12.3275C24.4123 12.1459 23.582 12.1232 22.83 12.0347C21.5431 11.9769 20.471 12.0347 19.6361 12.1232C18.5921 11.1485 16.9315 10.1602 16.9315 10.1602C17.2736 10.4881 17.4103 12.2742 17.4103 12.2742C17.0681 11.6796 15.9821 11.0816 15.9821 11.0816C16.594 12.4648 15.9821 15.4389 15.9821 15.4389C14.2129 17.1592 12.2463 23.1029 12.2463 23.1029L11.4943 24.1582C10.5402 25.4836 10.8917 27.5624 11.8364 28.0537Z" fill="#171A24"/>
</g>
<path d="M41.7074 24C41.7074 32.9952 34.1733 40.4062 24.7305 40.4062C15.2877 40.4062 7.75366 32.9952 7.75366 24C7.75366 15.0048 15.2877 7.59375 24.7305 7.59375C34.1733 7.59375 41.7074 15.0048 41.7074 24Z" stroke="#002634" stroke-width="4.6875"/>
<path d="M41.7074 24C41.7074 32.9952 34.1733 40.4062 24.7305 40.4062C15.2877 40.4062 7.75366 32.9952 7.75366 24C7.75366 15.0048 15.2877 7.59375 24.7305 7.59375C34.1733 7.59375 41.7074 15.0048 41.7074 24Z" stroke="#00D2DB" stroke-width="4.6875"/>
<ellipse cx="24.7305" cy="24" rx="19.3206" ry="18.75" fill="#00D2DB"/>
<mask id="mask3_1465_1275" style="mask-type:alpha" maskUnits="userSpaceOnUse" x="5" y="5" width="40" height="38">
<ellipse cx="24.7305" cy="24" rx="19.3206" ry="18.75" fill="white"/>
</mask>
<g mask="url(#mask3_1465_1275)">
<path fill-rule="evenodd" clip-rule="evenodd" d="M11.8364 28.0537C15.3666 29.9067 15.7088 26.5377 15.7088 26.5377C18.6329 26.2052 20.8039 23.0359 20.8039 23.0359C24.7498 25.0172 22.5509 30.6069 20.8494 32.7481C20.6906 32.9558 20.5528 33.1691 20.4302 33.3858H16.7073L12.9949 37.1667V41.8566C12.9949 41.8566 20.437 46.3209 24.7305 46.3209C29.0239 46.3209 38.5309 41.8566 38.5309 41.8566V37.1667H40.6135V33.3858H33.9602C37.0805 29.3348 36.2315 25.5233 35.2833 22.9871C34.1155 19.8576 32.532 18.1475 30.2244 16.3206C26.7981 13.6086 20.4664 13.2625 20.4664 13.2625C20.4255 13.0322 20.248 12.7655 19.9969 12.4864C20.7537 12.5136 21.6797 12.5715 22.7342 12.7042C23.4594 12.837 24.257 12.9164 25.0698 13.1468C25.8954 13.3204 26.7386 13.5995 27.5969 13.9229C28.4587 14.2327 29.2984 14.6718 30.1333 15.1371C30.9263 15.6693 31.7659 16.1663 32.4315 16.871C33.1941 17.4735 33.75 18.2621 34.321 19.0156C34.9178 19.752 35.2097 20.6519 35.6523 21.4314C35.9851 22.2609 36.172 23.112 36.4231 23.8915C36.6473 24.6802 36.6426 25.4699 36.7559 26.1746C36.8516 26.8838 36.9252 27.5351 36.8703 28.1207C36.8516 28.7051 36.8388 29.2111 36.8248 29.6276C36.8026 30.465 36.7886 30.9393 36.7886 30.9393L36.9018 30.953C36.9018 30.953 37.0069 30.4832 37.1436 29.6446C37.2078 29.2191 37.2814 28.7051 37.3725 28.1161C37.4998 27.5261 37.5044 26.8486 37.4495 26.1077C37.39 25.3724 37.4449 24.5565 37.272 23.71C37.0758 22.8725 36.9486 21.95 36.6017 21.0638C36.1545 20.2127 35.8532 19.2425 35.2331 18.4267C34.6352 17.5881 34.0466 16.72 33.235 16.046C32.4864 15.2971 31.5697 14.7785 30.7032 14.2248C29.7958 13.7504 28.8826 13.3068 27.9659 13.0015C27.0585 12.669 26.1465 12.4512 25.2742 12.3275C24.4123 12.1459 23.582 12.1232 22.83 12.0347C21.5431 11.9769 20.471 12.0347 19.6361 12.1232C18.5921 11.1485 16.9315 10.1602 16.9315 10.1602C17.2736 10.4881 17.4103 12.2742 17.4103 12.2742C17.0681 11.6796 15.9821 11.0816 15.9821 11.0816C16.594 12.4648 15.9821 15.4389 15.9821 15.4389C14.2129 17.1592 12.2463 23.1029 12.2463 23.1029L11.4943 24.1582C10.5402 25.4836 10.8917 27.5624 11.8364 28.0537Z" fill="#171A24"/>
</g>
<path d="M41.7074 24C41.7074 32.9952 34.1733 40.4062 24.7305 40.4062C15.2877 40.4062 7.75366 32.9952 7.75366 24C7.75366 15.0048 15.2877 7.59375 24.7305 7.59375C34.1733 7.59375 41.7074 15.0048 41.7074 24Z" stroke="#002634" stroke-width="4.6875"/>
<path d="M41.7074 24C41.7074 32.9952 34.1733 40.4062 24.7305 40.4062C15.2877 40.4062 7.75366 32.9952 7.75366 24C7.75366 15.0048 15.2877 7.59375 24.7305 7.59375C34.1733 7.59375 41.7074 15.0048 41.7074 24Z" stroke="#00D2DB" stroke-width="4.6875"/>
<path fill-rule="evenodd" clip-rule="evenodd" d="M0 33L0.966031 33L1.93206 33.9375V46.125H14.4905L15.4565 47.0625V48H0V33Z" fill="#00D2DB"/>
<path fill-rule="evenodd" clip-rule="evenodd" d="M49.4607 15L48.4947 15L47.5286 14.0625V1.875H34.9702L34.0042 0.9375V0H49.4607V15Z" fill="#00D2DB"/>
</g>
<path fill-rule="evenodd" clip-rule="evenodd" d="M65.2164 4.68945H59.1212V15.7233C59.1212 15.7858 59.1466 15.8618 59.1974 15.9512C59.2482 16.0405 59.3105 16.1255 59.3844 16.2059C59.4583 16.2863 59.5391 16.3556 59.6268 16.4137C59.7146 16.4718 59.7954 16.5008 59.8693 16.5008H65.9645V13.4173L63.4433 11.7817V14.2217H61.6424V6.96861H63.4433V8.28248L65.9645 9.9047V5.46705C65.9645 5.40448 65.9391 5.32851 65.8883 5.23913C65.8375 5.14975 65.7752 5.06484 65.7013 4.9844C65.6274 4.90396 65.5466 4.83469 65.4588 4.7766C65.3711 4.7185 65.2903 4.68945 65.2164 4.68945ZM70.1894 4.68945H66.2691L67.6543 6.33849V16.5008H73.7496V13.1089H71.2284V14.2217H70.1894V4.68945ZM74.0685 4.68945H77.9888V16.5008H75.4538V6.33849L74.0685 4.68945ZM85.7042 4.68945H79.609V15.7233C79.609 15.7858 79.6344 15.8618 79.6852 15.9512C79.736 16.0405 79.7983 16.1255 79.8722 16.2059C79.9461 16.2863 80.0269 16.3556 80.1146 16.4137C80.2024 16.4718 80.2832 16.5008 80.3571 16.5008H86.4523V13.4173L83.9311 11.7817V14.2217H82.1302V6.96861H83.9311V8.28248L86.4523 9.9047V5.46705C86.4523 5.40448 86.4269 5.32851 86.3761 5.23913C86.3253 5.14975 86.2629 5.06484 86.1891 4.9844C86.1152 4.90396 86.0344 4.83469 85.9466 4.7766C85.8589 4.7185 85.7781 4.68945 85.7042 4.68945ZM90.7468 10.7091L92.9078 4.68945H95.6645L93.6282 10.4142L95.5953 16.4338L93.3788 17.8013L90.7468 10.7091ZM90.6774 9.58294V4.68945H86.7709L88.1562 6.33849V16.5008H90.6774V11.7951L90.0817 10.937L90.6774 9.58294ZM65.9783 29.9087H59.8693C59.7954 29.9087 59.7146 29.8796 59.6268 29.8215C59.5391 29.7634 59.4583 29.6942 59.3844 29.6137C59.3105 29.5333 59.2482 29.4484 59.1974 29.359C59.1466 29.2696 59.1212 29.1936 59.1212 29.1311V24.7739L61.6424 26.3827V27.6295H63.4433V26.1145L59.1212 23.0444V18.0973H65.2303C65.3042 18.0973 65.385 18.1263 65.4727 18.1844C65.5604 18.2425 65.6412 18.3118 65.7151 18.3922C65.789 18.4727 65.8513 18.5576 65.9021 18.6469C65.9529 18.7363 65.9783 18.8123 65.9783 18.8749V22.9639L63.4433 21.3417V20.3764H61.6701V21.5026L65.9783 24.5728V29.9087ZM72.6276 21.4758H75.1627V18.0973H66.3108L68.264 20.3764H69.4553V29.9087H71.9904V20.3764H72.6276V21.4758ZM76.8111 29.1311V18.0973H82.9063C82.9802 18.0973 83.061 18.1263 83.1487 18.1844C83.2364 18.2425 83.3172 18.3118 83.3911 18.3922C83.465 18.4727 83.5273 18.5576 83.5781 18.6469C83.6289 18.7363 83.6543 18.8123 83.6543 18.8749V29.9087H77.5591C77.4852 29.9087 77.4044 29.8796 77.3167 29.8215C77.229 29.7634 77.1481 29.6942 77.0743 29.6137C77.0004 29.5333 76.938 29.4484 76.8873 29.359C76.8365 29.2696 76.8111 29.1936 76.8111 29.1311ZM79.3325 27.6285V20.3754H81.1334V27.6285H79.3325ZM87.9349 24.7873L89.8605 23.5136V20.3764H87.8795V23.9694L87.27 24.5325L87.8795 25.9671V29.9087H85.3445V19.7463L83.9592 18.0973H91.6475C91.7214 18.0973 91.8022 18.1263 91.8899 18.1844C91.9776 18.2425 92.0584 18.3118 92.1323 18.3922C92.2062 18.4727 92.2685 18.5576 92.3193 18.6469C92.3701 18.7363 92.3955 18.8123 92.3955 18.8749V24.9481L91.2042 25.7526L92.7973 29.8416L90.567 31.2091L87.9349 24.7873ZM94.0714 29.9087H96.6065V24.8677L96.745 25.0688L97.9918 28.8361L99.4879 27.2407C99.534 27.1781 99.564 27.1357 99.5779 27.1133C99.5918 27.091 99.6171 27.053 99.6541 26.9994C99.6541 26.9815 99.6656 26.9636 99.6887 26.9458C99.7118 26.9279 99.7234 26.9145 99.7234 26.9055L100.458 24.9347V29.9087H102.979V18.0973H100.374L98.3796 23.0176L96.6065 18.0973H92.6862L94.0714 19.7463V29.9087ZM59.1212 31.502H65.2164C65.2903 31.502 65.3711 31.531 65.4588 31.5891C65.5466 31.6472 65.6274 31.7165 65.7013 31.7969C65.7752 31.8773 65.8375 31.9623 65.8883 32.0516C65.9391 32.141 65.9645 32.217 65.9645 32.2795V36.7172L63.4433 35.095V33.7811H61.6424V41.0342H63.4433V38.5942L65.9645 40.2298V43.3133H59.8693C59.7954 43.3133 59.7146 43.2843 59.6268 43.2262C59.5391 43.1681 59.4583 43.0988 59.3844 43.0184C59.3105 42.938 59.2482 42.853 59.1974 42.7637C59.1466 42.6743 59.1212 42.5983 59.1212 42.5358V31.502ZM72.2255 36.2614H69.3579L71.5744 38.5405H72.2255V43.3133H74.7467V31.502H70.8402L72.2255 33.151V36.2614ZM67.6543 43.3133V33.151L66.2691 31.502H70.1894V35.8055H68.2639L70.1894 37.7629V43.3133H67.6543ZM82.5462 34.8805V31.502H75.0657L76.451 33.151V43.3133H82.5462V39.9214H80.025V41.0342H78.9861V38.4735H80.0112L82.2276 36.1943H78.9861V33.7811H80.025V34.8805H82.5462ZM91.0518 43.3133H84.9427C84.8688 43.3133 84.788 43.2843 84.7003 43.2262C84.6125 43.1681 84.5317 43.0988 84.4579 43.0184C84.384 42.938 84.3216 42.853 84.2708 42.7637C84.2201 42.6743 84.1947 42.5983 84.1947 42.5358V38.1785L86.7159 39.7874V41.0342H88.5167V39.5192L84.1947 36.4491V31.502H90.3037C90.3776 31.502 90.4584 31.531 90.5461 31.5891C90.6339 31.6472 90.7147 31.7165 90.7886 31.7969C90.8624 31.8773 90.9248 31.9623 90.9756 32.0516C91.0264 32.141 91.0518 32.217 91.0518 32.2795V36.3686L88.5167 34.7464V33.7811H86.7436V34.9073L91.0518 37.9774V43.3133ZM93.4483 43.3133H99.5573V37.9774L95.2491 34.9073V33.7811H97.0223V34.7464L99.5573 36.3686V32.2795C99.5573 32.217 99.5319 32.141 99.4811 32.0516C99.4304 31.9623 99.368 31.8773 99.2941 31.7969C99.2202 31.7165 99.1394 31.6472 99.0517 31.5891C98.964 31.531 98.8832 31.502 98.8093 31.502H92.7002V36.4491L97.0223 39.5192V41.0342H95.2214V39.7874L92.7002 38.1785V42.5358C92.7002 42.5983 92.7256 42.6743 92.7764 42.7637C92.8272 42.853 92.8895 42.938 92.9634 43.0184C93.0373 43.0988 93.1181 43.1681 93.2058 43.2262C93.2936 43.2843 93.3744 43.3133 93.4483 43.3133Z" fill="#00D2DB"/>
<defs>
<linearGradient id="paint0_linear_1465_1275" x1="-13.9107" y1="24" x2="23.5724" y2="62.6239" gradientUnits="userSpaceOnUse">
<stop stop-color="#00C6C8"/>
<stop offset="1" stop-color="#00A7C1"/>
</linearGradient>
</defs>
</svg>
