<svg width="26" height="26" viewBox="0 0 26 26" fill="none" xmlns="http://www.w3.org/2000/svg">
<path d="M13 0C5.82021 0 0 5.82021 0 13C0 20.1798 5.82021 26 13 26C20.1798 26 26 20.1798 26 13C26 5.82021 20.1798 0 13 0Z" fill="#8F86FF"/>
<path d="M6.23069 8C6.06729 8 5.91147 8.03045 5.76908 8.08411L12.6347 13.8175C12.8739 14.0175 13.1395 14.0174 13.3783 13.8175L20.2308 8.08411C20.0884 8.03045 19.9326 8 19.7691 8H6.23058H6.23069ZM5.01273 8.99163C5.00501 9.04421 5 9.09921 5 9.15395V16.8466C5 17.0043 5.03549 17.1546 5.09615 17.2913L9.83319 13.0243L5.01273 8.99163ZM20.9872 8.99163L16.1795 13.0182L20.9103 17.2852C20.969 17.1503 21 17.0017 21 16.8466V9.15396C21 9.09937 20.9948 9.04423 20.9873 8.99164L20.9872 8.99163ZM15.2564 13.7933L14.1987 14.6827C13.5264 15.2456 12.4864 15.2447 11.814 14.6827L10.7563 13.7992L6.08959 17.9941C6.13524 17.9989 6.1836 18 6.23068 18H19.7692C19.814 18 19.8604 17.9981 19.9039 17.9941L15.2562 13.7934L15.2564 13.7933Z" fill="#1E1548"/>
</svg>
