<svg width="40" height="40" viewBox="0 0 40 40" fill="#776BFF" xmlns="http://www.w3.org/2000/svg">
<path fill-rule="evenodd" clip-rule="evenodd" d="M15.3986 15.5455C15.3803 15.509 15.362 15.4724 15.3255 15.4359L15.3254 15.4359C15.179 15.2895 15.1059 15.07 15.1057 14.7039C14.8862 14.1185 14.8862 13.6061 15.0326 13.3866V13.3135C15.1059 13.1673 15.179 13.0209 15.179 12.8745C14.8131 10.8254 15.0328 9.94717 15.1059 9.72766C15.6916 7.89807 17.5943 7.0198 17.9602 6.87339C17.9905 6.87339 18.0333 6.86086 18.0835 6.84618C18.1545 6.82539 18.2403 6.80029 18.3261 6.80029H18.7651H18.9846H19.0577C19.0577 6.80029 19.7896 6.87339 20.8873 7.23931L21.6192 7.53213C23.0098 7.97113 23.6685 8.70297 23.7416 8.84938C24.8393 10.0933 24.5467 11.9229 24.2539 12.9476V12.9476C24.2539 13.094 24.2539 13.2404 24.327 13.3135L24.4001 13.3866C24.4734 13.4599 24.5465 13.8989 24.327 14.7772C24.2537 15.07 24.1806 15.2895 24.0342 15.4359C24.0342 15.4725 24.0159 15.5091 23.9977 15.5457C23.9794 15.5823 23.9611 15.6189 23.9611 15.6554C23.5952 17.8509 21.6192 20.266 19.5701 20.266C17.8138 20.266 15.8378 17.9974 15.4719 15.6554C15.4352 15.6188 15.4169 15.5822 15.3986 15.5455ZM26.5225 21.8762H26.742L26.7419 21.8762C27.6935 22.2421 28.0594 22.7544 28.0598 23.047C29.1576 24.6571 29.5966 27.7308 29.743 29.414C26.8888 31.6828 23.3027 33.0001 19.5705 33.0001C15.9113 33.0001 12.2522 31.6828 9.39795 29.3409C9.54437 27.6578 9.98337 24.584 11.0811 22.9739C11.1542 22.8275 11.5201 22.3154 12.3984 22.0226C12.5465 21.9633 12.7396 21.8921 12.9618 21.8101C13.8378 21.4868 15.1672 20.9962 15.9845 20.4125L16.1309 20.2661L16.5699 19.8271L16.643 19.754L16.7161 19.8271C17.5944 20.7053 18.6188 21.1443 19.497 21.1443C20.4486 21.1443 21.473 20.7784 22.3513 19.9735L22.4244 19.9004L22.6439 19.9735C22.7903 20.1197 23.0829 20.3394 23.2293 20.4125L23.3759 20.4858L23.449 20.5589C23.5587 20.5955 23.6501 20.6504 23.7415 20.7053C23.833 20.7602 23.9246 20.8152 24.0344 20.8517C24.1442 20.8883 24.2357 20.9249 24.3271 20.9615C24.4186 20.9981 24.5101 21.0347 24.6199 21.0712C24.6686 21.0956 24.7905 21.1444 24.9666 21.2148C25.319 21.3558 25.8883 21.5835 26.5225 21.8762Z" fill="white"/>
</svg>
