<svg width="26" height="26" viewBox="0 0 26 26" fill="none" xmlns="http://www.w3.org/2000/svg">
<path d="M13 0C5.82021 0 0 5.82021 0 13C0 20.1798 5.82021 26 13 26C20.1798 26 26 20.1798 26 13C26 5.82021 20.1798 0 13 0Z" fill="#8F86FF"/>
<path d="M6.69396 9.22451C6.24954 9.65225 6 10.2324 6 10.8375V15.6069C6 16.212 6.24955 16.792 6.69396 17.2198C8.46253 18.9231 17.5375 18.923 19.306 17.2198C19.7505 16.792 20 16.2119 20 15.6068V10.8374C20 10.2323 19.7504 9.65225 19.306 9.22451C16.5 7.49822 9.5 7.49805 6.69396 9.22451ZM13.5922 14.259L11.4923 15.2958V11.1485L15.6923 13.2221L13.5922 14.259Z" fill="#1E1548"/>
</svg>
